<?xml version="1.0" encoding="utf-8"?>
<!-- Generator: Adobe Illustrator 26.0.1, SVG Export Plug-In . SVG Version: 6.00 Build 0)  -->
<svg version="1.1" id="Layer_1" xmlns="http://www.w3.org/2000/svg" xmlns:xlink="http://www.w3.org/1999/xlink" x="0px" y="0px"
	 viewBox="0 0 706 134" style="enable-background:new 0 0 706 134;" xml:space="preserve">
<style type="text/css">
	.st0{fill:#FFFFFF;}
	.st1{fill:none;}
	.st2{fill:#FFFFFF;stroke:#FFFFFF;stroke-width:2;}
	.st3{fill:#0DCAF0;}
</style>
<g>
	<g>
		<g>
			<g>
				<path class="st0" d="M41.2,38.9H30.7c-3.8,0-6.9-3.1-6.9-6.9c0-3.8,3.1-6.9,6.9-6.9h10.6c3.8,0,6.9,3.1,6.9,6.9
					C48.1,35.8,45,38.9,41.2,38.9z M30.7,28.7c-1.8,0-3.3,1.5-3.3,3.3c0,1.8,1.5,3.3,3.3,3.3h10.6c1.8,0,3.3-1.5,3.3-3.3
					c0-1.8-1.5-3.3-3.3-3.3H30.7z"/>
			</g>
			<g>
				<path class="st1" d="M100.9,113c-5.9-2.5-12.4-5.5-18.9-8.8c-0.3-0.1-0.5-0.3-0.7-0.4c-0.3,0.1-0.5,0.3-0.7,0.4
					c-6.5,3.3-13,6.3-18.9,8.8"/>
				<path class="st1" d="M114.7,66.7c-1.3-7.5-6.9-11.9-15-11.8c-9.4,0.2-15.9,5.8-16.9,11.3c0,0,0,0,0,0l0,0c0,0.1-0.1,0.3-0.1,0.4
					l-1.4-0.2l-1.4,0.2c0-0.1-0.1-0.3-0.1-0.4l0,0c0,0,0,0,0,0c-1.1-5.5-7.6-11.1-16.9-11.3c-0.1,0-0.2,0-0.3,0
					c-7.9,0-13.3,4.4-14.6,11.8c-1.7,9.6,9.9,21.3,33.4,33.7C104.8,87.9,116.4,76.3,114.7,66.7z"/>
				<path class="st2" d="M139.3,35.3h-22.6c-4.9,0-9.4-2.2-12.5-6C100.5,24.7,95,22,89,22h-7.5v3.6H89c4.9,0,9.5,2.3,12.5,6.1
					c3.7,4.6,9.3,7.3,15.2,7.3h22.6c6.4,0,11.6,5.2,11.6,11.6V100v10.9c0,1.2-0.9,2.1-2.1,2.1h-31.4c-5.8,0-11.6-1.2-16.9-3.5
					c-5-2.2-10.5-4.7-15.9-7.4c23.9-12.9,35.1-25,33.2-35.9c-1.9-10.7-10.5-14.4-18-14.3c-7.2,0.1-15.1,3.7-18.4,9.7
					C77.9,55.6,70,52,62.8,51.9c-0.1,0-0.2,0-0.4,0c-7.4,0-15.8,3.7-17.6,14.3C43,77,54.1,89.1,78,102.1c-5.4,2.8-10.9,5.3-15.9,7.4
					c-5.3,2.3-11.1,3.5-16.9,3.5H14.3c-1.2,0-2.1-0.9-2.1-2.1V100l0-49.6c0-6.4,5.2-11.6,11.6-11.6H46c6,0,11.8-2.6,15.5-7.3
					c3-3.8,7.6-6,12.5-6h7.5V22H74c-6,0-11.5,2.7-15.3,7.3c-3.1,3.8-7.6,6-12.5,6H23.7c-8.3,0-15.1,6.8-15.1,15.1l0,49.6v10.9
					c0,3.1,2.5,5.7,5.7,5.7h30.3h0c5.7,0,11.4-1.1,16.6-3.4c0.1-0.1,0.3-0.1,0.4-0.2c5.9-2.5,12.4-5.5,18.9-8.8
					c0.3-0.1,0.5-0.3,0.7-0.4c0.3,0.1,0.5,0.3,0.7,0.4c6.5,3.3,13,6.3,18.9,8.8c0.1,0.1,0.3,0.1,0.4,0.2c5.3,2.2,10.9,3.4,16.6,3.4
					l0,0h30.8c3.1,0,5.7-2.5,5.7-5.7V100V50.4C154.4,42.1,147.7,35.3,139.3,35.3z M81.3,100.4C57.7,87.9,46.2,76.3,47.8,66.7
					c1.3-7.4,6.7-11.8,14.6-11.8c0.1,0,0.2,0,0.3,0c9.4,0.2,15.9,5.8,16.9,11.3c0,0,0,0,0,0l0,0c0,0.1,0.1,0.3,0.1,0.4l1.4-0.2
					l1.4,0.2c0-0.1,0.1-0.3,0.1-0.4l0,0c0,0,0,0,0,0c1.1-5.5,7.5-11.1,16.9-11.3c8.1-0.1,13.7,4.3,15,11.8
					C116.4,76.3,104.8,87.9,81.3,100.4z"/>
			</g>
		</g>
		<path class="st0" d="M136,49.6c0,1.7-1.4,3.1-3.1,3.1c-1.7,0-3.1-1.4-3.1-3.1c0-1.7,1.4-3.1,3.1-3.1C134.7,46.6,136,47.9,136,49.6
			z"/>
	</g>
</g>
<g>
	<path class="st0" d="M202,35.8h46.9c4.2,0,7.3,0.8,9.3,2.4c2,1.6,3,4.3,3,8.2v12.2c0,3.8-1,6.5-3,8.2c-2,1.6-5.1,2.4-9.3,2.4h-34.3
		v21.3H202V35.8z M214.5,45.2v14.5h28.6c2,0,3.4-0.3,4.3-0.8c0.9-0.5,1.4-1.7,1.4-3.6v-5.8c0-1.8-0.5-3-1.4-3.6
		c-0.9-0.5-2.4-0.8-4.3-0.8H214.5z"/>
	<path class="st0" d="M346,45.5v34.7h34.3V68.4l12.7,2.6v6.5c0,2.5-0.2,4.7-0.7,6.4c-0.5,1.7-1.2,3-2.3,4c-1.1,1-2.5,1.6-4.2,2
		c-1.7,0.4-3.9,0.6-6.4,0.6h-32.6c-2.5,0-4.7-0.2-6.4-0.6c-1.7-0.4-3.1-1.1-4.2-2c-1.1-1-1.8-2.3-2.3-4c-0.5-1.7-0.7-3.8-0.7-6.4
		V48.7c0-2.5,0.2-4.7,0.7-6.4s1.2-3,2.3-4c1.1-1,2.5-1.6,4.2-2c1.7-0.4,3.9-0.6,6.4-0.6h32.6c2.5,0,4.7,0.2,6.4,0.6
		c1.7,0.4,3.1,1.1,4.2,2c1.1,1,1.8,2.3,2.3,4s0.7,3.8,0.7,6.4v5.2l-12.7,2V45.5H346z"/>
	<path class="st0" d="M473,35.8h10.3l25.8,33.1l25.2-33.1h10.2v54.7h-11.8V56.6c0-0.6,0-1.3,0.1-2.3c0.1-1,0.2-2.1,0.3-3.6
		c-0.6,1.2-1.1,2.3-1.6,3.3c-0.5,1-1,1.8-1.5,2.4l-20.6,27.3h-2.5l-20.6-27.5c-0.6-0.8-1.2-1.7-1.8-2.6c-0.6-0.9-1.1-1.9-1.5-3
		c0.2,2.3,0.3,4.2,0.3,5.8v33.8H473V35.8z"/>
	<path class="st0" d="M636.6,45.3v11.8h34.1c2.5,0,4.7,0.2,6.5,0.6c1.8,0.4,3.2,1.1,4.2,2c1.1,1,1.8,2.3,2.3,4
		c0.5,1.7,0.7,3.8,0.7,6.4v7.5c0,2.5-0.2,4.7-0.7,6.4c-0.5,1.7-1.2,3-2.3,4c-1.1,1-2.5,1.6-4.2,2c-1.8,0.4-3.9,0.6-6.5,0.6h-33.8
		c-2.5,0-4.7-0.2-6.5-0.6c-1.8-0.4-3.2-1.1-4.2-2c-1.1-1-1.8-2.3-2.3-4c-0.5-1.7-0.7-3.8-0.7-6.4V76l11.2-2.3v6.5h38.7V67.7H639
		c-2.5,0-4.7-0.2-6.4-0.6c-1.7-0.4-3.1-1.1-4.2-2c-1.1-1-1.8-2.3-2.3-4c-0.5-1.7-0.7-3.8-0.7-6.4v-6c0-2.5,0.2-4.7,0.7-6.4
		c0.5-1.7,1.2-3,2.3-4c1.1-1,2.5-1.6,4.2-2c1.7-0.4,3.9-0.6,6.4-0.6h31.1c2.4,0,4.5,0.2,6.2,0.5c1.7,0.4,3.1,1,4.2,1.9
		c1.1,0.9,1.9,2.2,2.4,3.7c0.5,1.6,0.7,3.5,0.7,5.8v1.2l-11.2,2.6v-6.3H636.6z"/>
</g>
<g>
	<path class="st3" d="M219.2,111.6c0,4.7-3.4,7.6-9.1,7.6h-5.4v6.6h-3.1v-21.7h8.5C215.8,104.1,219.2,106.9,219.2,111.6z
		 M216.1,111.6c0-3.1-2.1-4.9-6-4.9h-5.3v9.7h5.3C214,116.5,216.1,114.7,216.1,111.6z"/>
	<path class="st3" d="M242.4,104.1v21.7h-3.1v-9.7h-12.5v9.7h-3.1v-21.7h3.1v9.3h12.5v-9.3H242.4z"/>
	<path class="st3" d="M247.1,114.9c0-6.4,4.9-11.1,11.6-11.1c6.6,0,11.5,4.7,11.5,11.1c0,6.4-4.9,11.1-11.5,11.1
		C252,126,247.1,121.3,247.1,114.9z M267.1,114.9c0-4.8-3.6-8.3-8.4-8.3c-4.9,0-8.5,3.5-8.5,8.3c0,4.8,3.6,8.3,8.5,8.3
		C263.5,123.3,267.1,119.7,267.1,114.9z"/>
	<path class="st3" d="M278.9,106.8h-7.4v-2.7h18v2.7H282v19h-3.1V106.8z"/>
	<path class="st3" d="M290.7,114.9c0-6.4,4.9-11.1,11.6-11.1c6.6,0,11.5,4.7,11.5,11.1c0,6.4-4.9,11.1-11.5,11.1
		C295.6,126,290.7,121.3,290.7,114.9z M310.7,114.9c0-4.8-3.6-8.3-8.4-8.3c-4.9,0-8.5,3.5-8.5,8.3c0,4.8,3.6,8.3,8.5,8.3
		C307.1,123.3,310.7,119.7,310.7,114.9z"/>
	<path class="st3" d="M333.6,114.8h3v8.5c-2.2,1.8-5.2,2.8-8.2,2.8c-6.7,0-11.6-4.7-11.6-11.1c0-6.4,4.9-11.1,11.6-11.1
		c3.4,0,6.4,1.1,8.3,3.3l-1.9,1.9c-1.8-1.7-3.8-2.5-6.3-2.5c-5,0-8.7,3.5-8.7,8.3c0,4.8,3.6,8.3,8.6,8.3c1.8,0,3.5-0.4,5.1-1.4
		V114.8z"/>
	<path class="st3" d="M357,125.8l-4.7-6.7c-0.4,0-0.9,0.1-1.4,0.1h-5.4v6.6h-3.1v-21.7h8.5c5.6,0,9.1,2.9,9.1,7.6
		c0,3.3-1.7,5.8-4.8,6.9l5.1,7.3H357z M356.9,111.6c0-3.1-2.1-4.9-6-4.9h-5.3v9.8h5.3C354.8,116.5,356.9,114.7,356.9,111.6z"/>
	<path class="st3" d="M378.9,120.4h-11.5l-2.4,5.4h-3.2l9.8-21.7h3.1l9.9,21.7h-3.3L378.9,120.4z M377.8,117.9l-4.7-10.6l-4.7,10.6
		H377.8z"/>
	<path class="st3" d="M405.2,111.6c0,4.7-3.4,7.6-9.1,7.6h-5.4v6.6h-3.1v-21.7h8.5C401.8,104.1,405.2,106.9,405.2,111.6z
		 M402.1,111.6c0-3.1-2.1-4.9-6-4.9h-5.3v9.7h5.3C400.1,116.5,402.1,114.7,402.1,111.6z"/>
	<path class="st3" d="M428.5,104.1v21.7h-3.1v-9.7h-12.5v9.7h-3.1v-21.7h3.1v9.3h12.5v-9.3H428.5z"/>
	<path class="st3" d="M443.3,118.3v7.5h-3.1v-7.6l-8.6-14.1h3.3l6.9,11.4l7-11.4h3.1L443.3,118.3z"/>
	<path class="st3" d="M461.6,114.9c0-6.4,4.9-11.1,11.5-11.1c3.3,0,6.3,1.1,8.2,3.4l-2,2c-1.7-1.8-3.7-2.6-6.1-2.6
		c-4.9,0-8.5,3.5-8.5,8.3c0,4.8,3.6,8.3,8.5,8.3c2.4,0,4.4-0.8,6.1-2.6l2,2c-2,2.2-4.9,3.4-8.3,3.4
		C466.5,126,461.6,121.3,461.6,114.9z"/>
	<path class="st3" d="M483.5,114.9c0-6.4,4.9-11.1,11.6-11.1c6.6,0,11.5,4.7,11.5,11.1c0,6.4-4.9,11.1-11.5,11.1
		C488.4,126,483.5,121.3,483.5,114.9z M503.5,114.9c0-4.8-3.6-8.3-8.4-8.3c-4.9,0-8.5,3.5-8.5,8.3c0,4.8,3.6,8.3,8.5,8.3
		C499.9,123.3,503.5,119.7,503.5,114.9z"/>
	<path class="st3" d="M531.5,125.8l0-15.8l-7.8,13.2h-1.4l-7.8-13.1v15.7h-3v-21.7h2.5l9.1,15.3l8.9-15.3h2.5l0,21.7H531.5z"/>
	<path class="st3" d="M558.5,111.6c0,4.7-3.4,7.6-9.1,7.6H544v6.6h-3.1v-21.7h8.5C555.1,104.1,558.5,106.9,558.5,111.6z
		 M555.4,111.6c0-3.1-2.1-4.9-6-4.9H544v9.7h5.3C553.3,116.5,555.4,114.7,555.4,111.6z"/>
	<path class="st3" d="M578.8,123.1v2.7H563v-21.7h15.3v2.7h-12.2v6.7H577v2.6h-10.9v7H578.8z"/>
	<path class="st3" d="M588.1,106.8h-7.4v-2.7h18v2.7h-7.4v19h-3.1V106.8z"/>
	<path class="st3" d="M602,104.1h3.1v21.7H602V104.1z"/>
	<path class="st3" d="M615.9,106.8h-7.4v-2.7h18v2.7H619v19h-3.1V106.8z"/>
	<path class="st3" d="M629.8,104.1h3.1v21.7h-3.1V104.1z"/>
	<path class="st3" d="M637.6,114.9c0-6.4,4.9-11.1,11.6-11.1c6.6,0,11.5,4.7,11.5,11.1c0,6.4-4.9,11.1-11.5,11.1
		C642.5,126,637.6,121.3,637.6,114.9z M657.6,114.9c0-4.8-3.6-8.3-8.4-8.3c-4.9,0-8.5,3.5-8.5,8.3c0,4.8,3.6,8.3,8.5,8.3
		C654,123.3,657.6,119.7,657.6,114.9z"/>
	<path class="st3" d="M684.1,104.1v21.7h-2.5l-13-16.2v16.2h-3.1v-21.7h2.5l13,16.2v-16.2H684.1z"/>
</g>
</svg>
